<svg width="150" height="150" viewBox="0 0 150 150" fill="none" xmlns="http://www.w3.org/2000/svg">
<rect width="150" height="150" fill="white"/>
<path d="M72.7704 127.768C73.6101 127.193 74.6052 126.896 75.6187 126.918C76.4599 126.937 77.282 127.176 78.0057 127.61C78.7294 128.045 79.3305 128.661 79.751 129.398C80.2915 128.842 80.9393 128.403 81.6542 128.111C82.369 127.818 83.1357 127.677 83.9066 127.697C85.2664 127.727 86.5692 128.256 87.572 129.186C87.9325 127.826 88.7336 126.628 89.8469 125.784C90.9603 124.94 92.3214 124.499 93.7121 124.531C94.4911 124.551 95.2594 124.719 95.9766 125.027V125.169C96.07 121.46 99.0117 118.507 102.607 118.389C101.915 116.944 101.648 115.328 101.837 113.734C102.187 110.828 103.961 108.442 106.366 107.19L106.389 107.214C105.152 105.914 104.405 104.142 104.451 102.181C104.483 100.682 104.991 99.2322 105.899 98.0468C104.57 97.2883 103.554 96.0723 103.035 94.6199C102.517 93.1676 102.531 91.5752 103.074 90.1322C101.64 89.9838 100.314 89.293 99.3617 88.1978C98.4094 87.1027 97.9008 85.6841 97.9377 84.2258C97.9382 83.9251 97.9616 83.625 98.0078 83.328C97.6852 83.3947 97.3565 83.4264 97.0272 83.4225C96.0073 83.392 95.0261 83.021 94.2364 82.3671C93.4467 81.7133 92.8929 80.8134 92.6615 79.8077C91.9517 80.29 91.1115 80.5377 90.2568 80.5165C88.3424 80.4456 86.7549 79.099 86.3346 77.2798C85.9211 77.5119 85.4532 77.6262 84.9805 77.6105C84.5908 77.6018 84.2079 77.5049 83.8599 77.327V77.2798C83.4434 78.718 82.6628 80.0211 81.5953 81.0599C82.1177 81.3074 82.5445 81.7227 82.8093 82.2412C83.0045 82.6307 83.1024 83.0626 83.0942 83.4992C83.0861 83.9359 82.9722 84.3638 82.7626 84.7455C83.4835 84.9107 84.1478 85.2675 84.6871 85.7792C85.2263 86.2908 85.6209 86.9387 85.8302 87.656C86.0396 88.3734 86.0561 89.1343 85.878 89.8603C85.6999 90.5862 85.3337 91.251 84.8171 91.786C85.7829 92.2139 86.5742 92.9645 87.0584 93.9123C88.2257 96.204 87.3152 99.0155 85.0506 100.197C85.5581 100.668 85.9773 101.228 86.2879 101.851C87.7354 104.709 86.6381 108.23 83.8132 109.647C83.3706 109.881 82.8997 110.056 82.4124 110.167V110.19C82.7965 110.944 83.0299 111.767 83.0993 112.612C83.1687 113.458 83.0727 114.308 82.8168 115.116C82.5609 115.923 82.1502 116.672 81.6081 117.319C81.066 117.965 80.4032 118.498 79.6576 118.885C78.6 119.435 77.4105 119.672 76.2257 119.57C76.312 121.003 75.9621 122.428 75.2232 123.653C74.4843 124.878 73.3919 125.844 72.0934 126.421C72.406 126.815 72.6435 127.263 72.7938 127.744C72.786 127.745 72.7782 127.745 72.7704 127.744V127.768Z" fill="#B1361E"/>
<path d="M143.3 2.1267e-05H6.70044C4.92339 2.1267e-05 6.62848e-05 0 6.62848e-05 0C6.62848e-05 0 5.14857e-05 4.98229 5.14857e-05 6.78061V143.219C5.14857e-05 144.11 5.14857e-05 145.737 5.14857e-05 145.737L0 150H4.05755C4.05755 150 5.82053 150 6.70044 150H143.3C144.18 150 146.032 150 146.032 150H150V145.907C150 145.907 150 144.11 150 143.219V6.78061C150 5.89017 150 4.27635 150 4.27635V1.72291V2.1267e-05C150 2.1267e-05 144.18 2.1267e-05 143.3 2.1267e-05ZM137.113 91.857C136.226 93.2745 134.825 94.2196 133.331 94.5976C134.071 95.4761 134.53 96.5606 134.65 97.7085C134.769 98.8564 134.542 100.014 133.999 101.029C133.456 102.044 132.622 102.869 131.606 103.395C130.591 103.921 129.443 104.124 128.311 103.977C128.298 103.89 128.282 103.803 128.265 103.717C128.437 104.601 128.368 105.517 128.065 106.364C127.763 107.212 127.238 107.96 126.546 108.528C125.855 109.097 125.024 109.464 124.142 109.59C123.26 109.717 122.361 109.597 121.541 109.246C121.479 109.876 121.271 110.483 120.934 111.017C120.304 112.033 119.3 112.671 118.249 112.837C118.459 113.782 118.507 114.757 118.389 115.719C118.132 117.94 117.013 119.967 115.279 121.354C113.546 122.74 111.339 123.373 109.144 123.114H109.377C109.634 123.89 109.752 124.706 109.728 125.524C109.679 127.368 108.909 129.118 107.587 130.389C106.266 131.66 104.5 132.349 102.677 132.304C101.653 132.278 100.648 132.019 99.7354 131.548C99.6013 132.727 99.1403 133.843 98.4057 134.768C97.6711 135.692 96.6928 136.387 95.5841 136.773C94.4754 137.158 93.2815 137.219 92.1404 136.946C90.9994 136.674 89.9578 136.08 89.1362 135.234C88.7726 136.328 88.0904 137.284 87.1793 137.979C86.2682 138.673 85.1709 139.071 84.0317 139.122C82.8924 139.174 81.7646 138.875 80.7964 138.265C79.8282 137.655 79.0649 136.763 78.607 135.706C77.9358 136.264 77.1303 136.631 76.2729 136.77C75.4156 136.909 74.5371 136.815 73.7274 136.498C72.9176 136.18 72.2056 135.651 71.6642 134.964C71.1228 134.277 70.7714 133.457 70.646 132.588C70.0788 132.865 69.4547 133.003 68.8249 132.989C66.7938 132.942 65.1362 131.336 64.9495 129.327L64.9728 129.28C64.0358 130.777 62.6546 131.935 61.0273 132.588C59.0149 133.403 56.7679 133.392 54.7629 132.559C52.758 131.725 51.1528 130.134 50.288 128.123C49.7398 128.721 49.0918 129.217 48.3736 129.587C46.7505 130.422 44.8668 130.573 43.1342 130.006C41.4017 129.44 39.9615 128.202 39.1284 126.563C38.6542 125.642 38.3909 124.625 38.358 123.586C37.2726 124.023 36.0873 124.142 34.9384 123.928C33.7895 123.714 32.7235 123.176 31.8628 122.377C31.0022 121.578 30.3818 120.549 30.0729 119.409C29.7641 118.269 29.7793 117.063 30.1168 115.932C28.9943 116.133 27.8377 115.987 26.7991 115.511C25.7605 115.035 24.8883 114.253 24.2973 113.266C23.7063 112.28 23.4241 111.135 23.4877 109.983C23.5513 108.831 23.9578 107.726 24.6537 106.812C23.8472 106.483 23.1418 105.942 22.61 105.245C22.0782 104.549 21.739 103.722 21.6273 102.849C21.5156 101.976 21.6355 101.088 21.9745 100.278C22.3135 99.4673 22.8595 98.7625 23.5565 98.2359C23.0475 97.8664 22.6316 97.3808 22.3425 96.8184C22.0385 96.2207 21.8858 95.5561 21.898 94.884C21.9102 94.2119 22.087 93.5534 22.4125 92.9674L22.5292 92.991C21.401 92.7127 20.3431 92.1976 19.4242 91.479C17.6997 90.1348 16.5633 88.1613 16.2579 85.9803C15.9525 83.7993 16.5024 81.5839 17.7899 79.8079C17.011 79.6322 16.2684 79.3204 15.5954 78.8865C14.058 77.8922 12.9732 76.3213 12.5793 74.5184C12.1853 72.7156 12.5144 70.8283 13.4942 69.2708C14.0496 68.3985 14.7916 67.6637 15.6654 67.1208C14.7327 66.3985 14.0215 65.4233 13.6144 64.3085C13.2072 63.1936 13.1209 61.9847 13.3653 60.8222C13.6097 59.6596 14.1749 58.5911 14.9953 57.7405C15.8156 56.8899 16.8575 56.2922 18 56.0167C17.2663 55.136 16.8125 54.0515 16.6982 52.9053C16.5839 51.7592 16.8144 50.6048 17.3595 49.5935C17.9046 48.5822 18.7389 47.7611 19.753 47.2378C20.7672 46.7145 21.9139 46.5134 23.0428 46.6609L23.0662 46.9208C22.8886 46.0348 22.9535 45.1166 23.2541 44.2652C23.5546 43.4139 24.0793 42.6618 24.7715 42.0903C25.4636 41.5187 26.2969 41.1494 27.1814 41.0223C28.0659 40.8951 28.9679 41.0149 29.7899 41.3687C29.8521 40.7381 30.0601 40.1311 30.3969 39.5968C31.0273 38.6045 32.0312 37.9666 33.1051 37.7776C32.8896 36.8412 32.8343 35.8743 32.9417 34.9189C33.1945 32.7343 34.2806 30.7361 35.9684 29.3503C37.6562 27.9644 39.8122 27.3006 41.9767 27.5004C41.7154 26.7332 41.589 25.9256 41.6032 25.1142C41.7199 21.2632 44.8716 18.2155 48.6537 18.3336C49.676 18.3522 50.6812 18.6025 51.5954 19.066C51.7332 17.8894 52.1969 16.7761 52.9331 15.8547C53.6692 14.9333 54.6478 14.2413 55.7558 13.8585C56.8639 13.4756 58.0563 13.4176 59.1956 13.6911C60.3348 13.9645 61.3745 14.5583 62.1946 15.404C62.5556 14.3091 63.2357 13.3504 64.1454 12.6541C65.0551 11.9577 66.1517 11.5563 67.2911 11.5026C68.4305 11.4489 69.5592 11.7455 70.5289 12.3533C71.4986 12.9611 72.2637 13.8517 72.7238 14.9079C73.395 14.3505 74.2005 13.9836 75.0579 13.8445C75.9152 13.7055 76.7937 13.7994 77.6035 14.1166C78.4132 14.4338 79.1252 14.9629 79.6666 15.6499C80.208 16.3369 80.5594 17.157 80.6849 18.0265C81.254 17.7572 81.8779 17.6277 82.5059 17.6485C84.5603 17.6957 86.1946 19.3023 86.4047 21.2868L86.358 21.3577C87.29 19.8513 88.672 18.6844 90.3035 18.0265C94.5058 16.3018 99.2685 18.31 101.043 22.5154C101.589 21.9087 102.237 21.4047 102.957 21.027C104.583 20.1845 106.472 20.0298 108.21 20.5969C109.948 21.164 111.393 22.4065 112.226 24.051C112.692 24.9742 112.947 25.9915 112.973 27.0279C114.062 26.5818 115.253 26.4573 116.409 26.6689C117.565 26.8806 118.638 27.4197 119.503 28.2236C120.369 29.0276 120.991 30.0634 121.298 31.2109C121.605 32.3583 121.584 33.5704 121.237 34.7063C122.356 34.5095 123.507 34.6584 124.541 35.1335C125.575 35.6086 126.443 36.3879 127.033 37.3697C127.622 38.3516 127.906 39.4904 127.847 40.6378C127.788 41.7852 127.388 42.8879 126.7 43.8022C127.507 44.1318 128.212 44.6726 128.744 45.3691C129.276 46.0656 129.615 46.8927 129.727 47.7656C129.838 48.6385 129.719 49.5258 129.38 50.3364C129.041 51.147 128.495 51.8518 127.798 52.3783C128.298 52.7507 128.706 53.2361 128.988 53.7959C129.296 54.3966 129.451 55.0656 129.439 55.7422C129.427 56.4188 129.248 57.0817 128.918 57.6705C130.012 57.9539 131.037 58.4604 131.93 59.1589C133.644 60.506 134.772 62.4766 135.072 64.6517C135.373 66.8268 134.824 69.0349 133.541 70.8064C134.321 70.9894 135.064 71.3093 135.735 71.7515C137.266 72.7455 138.347 74.312 138.74 76.1091C139.134 77.9062 138.809 79.7879 137.837 81.3435C137.291 82.2218 136.557 82.9646 135.689 83.5171C136.91 84.478 137.733 85.8655 137.996 87.4081C138.259 88.9506 137.945 90.5371 137.113 91.857Z" fill="#B1361E"/>
<path d="M71.5797 21.216C71.0392 21.7726 70.3914 22.2108 69.6765 22.5034C68.9617 22.7961 68.195 22.9368 67.4241 22.9171C66.0754 22.8884 64.7823 22.3683 63.7821 21.4523C63.4163 22.8115 62.6098 24.007 61.4921 24.8467C60.3743 25.6865 59.0102 26.1218 57.6187 26.0829C56.8412 26.0708 56.0729 25.9105 55.3541 25.6104C55.2728 27.3546 54.5455 29.0038 53.3168 30.2297C52.0881 31.4555 50.4482 32.1682 48.7237 32.2256C49.4154 33.6704 49.6828 35.2858 49.4941 36.8799C49.3326 38.2646 48.8343 39.5871 48.0439 40.7292C47.2535 41.8713 46.1956 42.7972 44.965 43.4242C46.2023 44.7236 46.9261 46.4956 46.8794 48.4565C46.8425 49.948 46.3353 51.3884 45.4319 52.5674C47.4397 53.7014 48.7471 55.875 48.7004 58.3557C48.6729 59.0848 48.5229 59.8039 48.2568 60.482C49.695 60.6307 51.0242 61.3249 51.9771 62.4251C52.93 63.5253 53.4359 64.9498 53.393 66.4121C53.3913 66.7049 53.3679 66.9971 53.3229 67.2862C53.6464 67.2274 53.9751 67.2037 54.3035 67.2154C56.4513 67.2626 58.2257 68.7983 58.6926 70.8301C59.3958 70.3525 60.2271 70.1051 61.0739 70.1213C63.0117 70.1686 64.5759 71.5389 65.0194 73.3581C65.3806 73.1525 65.7848 73.0368 66.1988 73.0203C66.6129 73.0039 67.0248 73.0873 67.4008 73.2636C67.6738 71.7877 68.326 70.4107 69.2918 69.2708C68.9795 69.0319 68.7242 68.7251 68.5447 68.373C68.3499 67.9885 68.2503 67.5619 68.2544 67.1298C68.2584 66.6977 68.3661 66.273 68.5681 65.8923C67.8445 65.7264 67.178 65.3676 66.6378 64.8529C66.0976 64.3383 65.7034 63.6867 65.4961 62.9658C65.2888 62.2449 65.276 61.481 65.4591 60.7534C65.6421 60.0258 66.0143 59.3611 66.5369 58.8282C65.5711 58.4004 64.7799 57.6497 64.2957 56.7019C64.0031 56.1223 63.8332 55.4872 63.797 54.8373C63.7607 54.1874 63.8589 53.537 64.0853 52.9277C64.3116 52.3185 64.6611 51.7637 65.1114 51.2989C65.5617 50.8341 66.1029 50.4695 66.7004 50.2285C66.5735 50.278 66.4489 50.3332 66.3268 50.3938C65.811 49.9245 65.3838 49.3641 65.0661 48.74C64.6627 47.9484 64.4451 47.0733 64.4305 46.1827C64.4159 45.2922 64.6046 44.4102 64.9818 43.6055C65.3591 42.8008 65.9148 42.095 66.6056 41.5432C67.2965 40.9913 68.1039 40.6082 68.965 40.4238V40.4001C68.1949 38.883 68.05 37.1191 68.5619 35.4942C69.0738 33.8692 70.2009 32.5156 71.6965 31.7295C72.7586 31.1667 73.9569 30.9209 75.1517 31.0207C75.0694 29.6633 75.3786 28.311 76.0418 27.1281C76.7049 25.9453 77.6935 24.983 78.8871 24.3582C79.01 24.2995 79.1346 24.2443 79.2607 24.1929C78.9563 23.7978 78.7268 23.3493 78.5836 22.8698C77.7412 23.4361 76.7463 23.725 75.7354 23.6967C74.8919 23.6744 74.0683 23.4322 73.3444 22.9935C72.6205 22.5548 72.0207 21.9344 71.6031 21.1924L71.5797 21.216ZM121.704 72.4839C120.613 71.6269 119.75 70.5089 119.191 69.2305C118.633 67.9521 118.398 66.5533 118.506 65.1599C116.778 65.5616 114.887 65.3017 113.276 64.2385C112.024 63.44 111.058 62.2557 110.521 60.86C109.516 61.4371 108.374 61.7266 107.219 61.6974C106.063 61.6683 104.937 61.3217 103.961 60.6947C103.343 60.2963 102.798 59.7927 102.35 59.2062C100.576 61.6161 97.2373 62.2776 94.6926 60.6238C94.4466 60.4685 94.2125 60.2948 93.9922 60.104C93.884 60.4175 93.7431 60.7185 93.5719 61.0018C93.0186 61.8714 92.196 62.5309 91.2329 62.8772C90.2698 63.2234 89.2205 63.2369 88.249 62.9155C88.2837 63.7754 88.0555 64.6252 87.5953 65.3489C86.5681 67.0027 84.5836 67.6643 82.8327 67.0972C82.8227 67.5741 82.6856 68.0394 82.4358 68.4439C82.2957 68.6565 82.1323 68.8456 81.9688 68.9873C82.8968 69.9994 83.5695 71.2232 83.9299 72.5548C84.294 72.3781 84.6935 72.2892 85.0972 72.2949C85.5271 72.307 85.9475 72.4253 86.3218 72.6394C86.6962 72.8536 87.0131 73.157 87.2451 73.5235C87.7327 72.9605 88.3599 72.5394 89.0621 72.3037C89.7642 72.068 90.5158 72.0263 91.2392 72.1828C91.9626 72.3394 92.6316 72.6885 93.1772 73.1941C93.7227 73.6998 94.1249 74.3436 94.3424 75.0591C95.1767 74.4074 96.207 74.0654 97.2607 74.0905C99.8288 74.1377 101.813 76.2877 101.766 78.8629C101.759 79.0211 101.743 79.1788 101.72 79.3354L101.766 78.8865C102.418 78.6529 103.106 78.5409 103.798 78.5557C104.553 78.571 105.298 78.7375 105.989 79.0457C106.68 79.3538 107.304 79.7974 107.825 80.351C108.346 80.9045 108.754 81.557 109.024 82.2707C109.294 82.9845 109.422 83.7453 109.401 84.5094C109.387 85.0137 109.309 85.5141 109.167 85.9979C112.693 86.0924 115.471 89.0456 115.377 92.6131C115.348 93.8168 114.984 94.9878 114.327 95.9916C115.558 96.5637 116.597 97.4884 117.315 98.6515C118.033 99.8146 118.398 101.165 118.366 102.536C118.338 103.321 118.18 104.096 117.899 104.828L117.922 104.78L118.552 104.898C118.506 103.872 118.775 102.857 119.323 101.993C119.777 101.273 120.406 100.684 121.15 100.282C121.895 99.881 122.729 99.6807 123.572 99.7008C123.378 98.944 123.34 98.1549 123.46 97.3826C123.581 96.6103 123.857 95.8714 124.272 95.2119C125.007 94.0658 126.127 93.2269 127.424 92.8493C126.453 91.8334 125.849 90.5161 125.71 89.11C125.57 87.704 125.902 86.2913 126.654 85.1001C127.079 84.435 127.626 83.8578 128.265 83.399C126.82 82.4304 125.791 80.9447 125.384 79.24C124.977 77.5353 125.222 75.7379 126.07 74.2086C124.489 74.0663 122.982 73.4677 121.728 72.4839H121.704Z" fill="#B1361E"/>
<path d="M122.031 53.4885C122.178 53.2424 122.35 53.0127 122.545 52.8033C121.653 52.3277 120.927 51.5852 120.467 50.677C120.082 49.918 119.897 49.0713 119.93 48.2188C119.962 47.3662 120.212 46.5366 120.654 45.8101C119.206 45.3848 117.946 44.3926 117.198 42.9278C116.578 41.7127 116.412 40.3114 116.731 38.9823C115.378 39.3129 113.954 39.1735 112.688 38.5865C111.422 37.9995 110.387 36.9989 109.751 35.7455C109.393 35.0381 109.172 34.2685 109.097 33.4775C107.545 34.2423 105.766 34.3875 104.113 33.8839C102.46 33.3804 101.056 32.2652 100.179 30.7605C99.2567 32.0637 97.9847 33.0722 96.5136 33.6665C95.2346 34.1845 93.8486 34.3737 92.4797 34.217C91.1108 34.0604 89.8016 33.5627 88.6693 32.7687V32.6978C88.3981 33.5928 87.9527 34.4239 87.3593 35.1421C86.7659 35.8603 86.0365 36.451 85.214 36.8796C83.9017 37.5728 82.404 37.8213 80.9416 37.5883C80.9217 38.7541 80.5899 39.8926 79.9814 40.8828C79.373 41.8729 78.5108 42.6776 77.4864 43.2113C76.8438 43.5487 76.149 43.7724 75.4319 43.8728C76.5759 46.637 75.4319 49.8737 72.7471 51.2677C72.4917 51.4058 72.2263 51.5243 71.9533 51.622C72.1607 51.8777 72.3407 52.1549 72.4903 52.4489C73.4708 54.3863 72.9805 56.7016 71.4397 58.0719C72.1921 58.4737 72.8036 59.1008 73.1907 59.8674C74.0778 61.5921 73.6576 63.6476 72.2568 64.8997C72.6636 65.1514 72.9946 65.5109 73.214 65.9393C73.3307 66.1519 73.4008 66.3645 73.4475 66.5772C74.8182 66.189 76.2634 66.1565 77.6498 66.4827C77.7117 66.1643 77.8303 65.8601 78 65.5849C78.2297 65.2217 78.543 64.9202 78.913 64.7063C79.283 64.4923 79.6987 64.3722 80.1245 64.3563C79.8979 63.6419 79.8643 62.8792 80.0272 62.1472C80.1901 61.4152 80.5435 60.7406 81.0509 60.1935C81.5582 59.6463 82.201 59.2465 82.9125 59.0354C83.624 58.8244 84.3783 58.8099 85.0973 58.9933C84.9817 57.9338 85.2289 56.8663 85.7977 55.9692C87.1517 53.7956 90 53.1577 92.1479 54.5516C92.2937 53.8623 92.5627 53.2058 92.9416 52.6143C93.3453 51.9676 93.8716 51.4083 94.4902 50.9687C95.1087 50.5291 95.8072 50.218 96.5453 50.0532C97.2835 49.8884 98.0465 49.8733 98.7904 50.0088C99.5343 50.1443 100.244 50.4276 100.879 50.8424C101.293 51.115 101.669 51.4406 102 51.8111C102.449 51.0956 103.033 50.4767 103.718 49.9898C104.403 49.5028 105.177 49.1573 105.994 48.973C106.812 48.7887 107.657 48.7692 108.482 48.9156C109.307 49.0621 110.095 49.3716 110.802 49.8265C111.814 50.4748 112.623 51.4006 113.136 52.4962C115.354 50.9842 118.342 50.8424 120.724 52.4017C121.202 52.7086 121.641 53.0736 122.031 53.4885V53.4885ZM78.1401 84.6745C77.8927 84.2122 77.7871 83.6858 77.8366 83.1624C77.1496 83.3373 76.4438 83.4247 75.7354 83.4223C75.035 83.4223 74.358 83.3514 73.7276 83.1861C73.8363 83.8336 73.7032 84.4988 73.3541 85.0525C73.1221 85.4189 72.8052 85.7224 72.4308 85.9365C72.0565 86.1506 71.6361 86.2689 71.2062 86.281C71.4255 86.9917 71.4544 87.7486 71.2899 88.4743C71.1255 89.2 70.7736 89.8685 70.2703 90.4115C69.7669 90.9545 69.1302 91.3525 68.425 91.5649C67.7199 91.7773 66.9717 91.7965 66.2568 91.6205C66.3724 92.6799 66.1252 93.7474 65.5564 94.6446C64.8955 95.6861 63.8537 96.4201 62.659 96.6858C61.4644 96.9515 60.2144 96.7272 59.1829 96.0621C59.0371 96.7514 58.7681 97.4079 58.3891 97.9994C57.9855 98.6429 57.4603 99.1993 56.8436 99.6368C56.2269 100.074 55.531 100.384 54.7956 100.549C54.0603 100.714 53.3 100.73 52.5585 100.596C51.817 100.463 51.1089 100.182 50.4747 99.7713C50.0534 99.5002 49.6688 99.1745 49.3307 98.8027V98.8263C48.4204 100.267 46.9818 101.283 45.3312 101.651C43.6807 102.019 41.9534 101.708 40.5292 100.787C39.5202 100.145 38.711 99.2281 38.1946 98.1412C35.9767 99.6532 33.0117 99.795 30.607 98.2357C30.1292 97.9286 29.6901 97.5636 29.2996 97.1489C29.1512 97.3866 28.9791 97.6083 28.786 97.8104C29.6869 98.2822 30.421 99.0251 30.8872 99.9367C31.2687 100.698 31.4498 101.546 31.413 102.398C31.3762 103.251 31.1227 104.079 30.6771 104.804C32.1245 105.229 33.4086 106.221 34.1323 107.686C34.7532 108.901 34.919 110.302 34.5992 111.631C35.9589 111.297 37.3904 111.437 38.6617 112.029C39.9329 112.62 40.9694 113.629 41.6031 114.892C41.9504 115.593 42.1642 116.355 42.2335 117.136C43.7878 116.364 45.5729 116.216 47.2311 116.719C48.8893 117.223 50.298 118.343 51.1751 119.853C52.0974 118.55 53.3694 117.542 54.8405 116.947C57.5253 115.86 60.4436 116.286 62.6848 117.845C62.9602 116.964 63.4053 116.148 63.9944 115.442C64.5834 114.737 65.3048 114.156 66.1167 113.734C67.4317 113.049 68.9292 112.809 70.3891 113.049C70.4125 110.757 71.6731 108.537 73.8444 107.402C74.4943 107.063 75.1972 106.839 75.9222 106.741C74.7549 103.977 75.9222 100.74 78.5837 99.3461C78.8473 99.2148 79.1204 99.1043 79.4008 99.0153C79.1837 98.7535 78.9958 98.4683 78.8405 98.1648C77.8599 96.2275 78.3735 93.9358 79.891 92.5655C79.1387 92.1636 78.5272 91.5366 78.1401 90.7699C77.2763 89.0216 77.6965 86.9662 79.0739 85.714C78.6758 85.459 78.3531 85.0998 78.1401 84.6745Z" fill="#B1361E"/>
<path d="M67.7977 77.8469C67.3395 78.1693 66.7914 78.3348 66.2335 78.3194C65.8058 78.3098 65.3868 78.1952 65.0126 77.9853C64.6384 77.7753 64.3203 77.4765 64.0857 77.1145C63.5972 77.6713 62.9714 78.087 62.2722 78.319C61.573 78.5509 60.8255 78.5908 60.1061 78.4347C59.3866 78.2785 58.7211 77.9318 58.1774 77.43C57.6338 76.9283 57.2315 76.2894 57.0117 75.5788C56.168 76.2273 55.1289 76.5611 54.0701 76.5238C51.5254 76.4766 49.5176 74.3266 49.5876 71.7514C48.927 71.9798 48.2307 72.0839 47.5331 72.0585C46.6538 72.0376 45.791 71.8117 45.0119 71.3984C44.2329 70.985 43.5585 70.3955 43.0413 69.6755C42.5241 68.9555 42.1779 68.1245 42.0297 67.247C41.8815 66.3696 41.9353 65.4694 42.1868 64.6164H42.1635C38.6615 64.5456 35.86 61.5923 35.9534 58.0248C35.9827 56.8211 36.3468 55.6501 37.004 54.6464C35.7812 54.0673 34.7521 53.1395 34.0429 51.977C33.3338 50.8145 32.9754 49.4677 33.0117 48.102C33.0272 47.3277 33.1692 46.5613 33.432 45.8339C33.2191 45.8114 33.0083 45.7719 32.8016 45.7158C32.8482 46.7418 32.5791 47.7572 32.0312 48.6218C31.5776 49.3414 30.9482 49.9304 30.2038 50.3318C29.4595 50.7333 28.6254 50.9336 27.7822 50.9135C28.1557 52.4019 27.9456 54.0085 27.0818 55.4024C26.3567 56.5528 25.2459 57.4 23.9534 57.7886C25.8911 59.844 26.288 63.0335 24.7005 65.5378C24.2816 66.2008 23.743 66.7779 23.1129 67.2389C24.5516 68.2069 25.5766 69.6884 25.9834 71.3875C26.3902 73.0867 26.1488 74.8787 25.3075 76.4057C26.8826 76.5593 28.3813 77.1659 29.6265 78.154C30.7141 79.0088 31.5755 80.1229 32.1336 81.3968C32.6918 82.6708 32.9293 84.0648 32.825 85.4544C34.5759 85.0527 36.4437 85.3362 38.0779 86.3994C39.3174 87.1956 40.2742 88.3707 40.8094 89.7542C41.817 89.1807 42.9598 88.8953 44.1155 88.9286C45.2711 88.9619 46.396 89.3126 47.3697 89.9433C47.9856 90.3346 48.5305 90.83 48.9806 91.408C50.7549 88.9982 54.1168 88.3367 56.6382 89.9905C56.8851 90.1532 57.1192 90.3349 57.3386 90.5339C57.4542 90.2194 57.6029 89.9184 57.7822 89.6361C58.9495 87.7933 61.144 87.0609 63.1051 87.6988C63.0683 86.8494 63.2881 86.0087 63.7355 85.289C64.7861 83.6352 66.7705 82.9973 68.4981 83.5643C68.5075 83.0633 68.6573 82.5752 68.9301 82.157C69.2029 81.7387 69.5874 81.4075 70.039 81.2017C69.0447 80.2933 68.2768 79.16 67.7977 77.8941V77.8469Z" fill="#B1361E"/>
</svg>
