<svg width="150" height="150" viewBox="0 0 150 150" fill="none" xmlns="http://www.w3.org/2000/svg">
<rect width="150" height="150" fill="white"/>
<path d="M112.381 56.0975C111.475 52.7313 108.821 50.0772 105.455 49.1709C99.305 47.4878 74.7059 47.4878 74.7059 47.4878C74.7059 47.4878 50.1068 47.4878 43.9571 49.1062C40.6556 50.0124 37.9368 52.7313 37.0305 56.0975C35.4121 62.2472 35.4121 74.9999 35.4121 74.9999C35.4121 74.9999 35.4121 87.8173 37.0305 93.9024C37.9368 97.2686 40.5909 99.9227 43.9571 100.829C50.1716 102.512 74.7059 102.512 74.7059 102.512C74.7059 102.512 99.305 102.512 105.455 100.894C108.821 99.9874 111.475 97.3333 112.381 93.9671C114 87.8174 114 75.0647 114 75.0647C114 75.0647 114.064 62.2472 112.381 56.0975V56.0975Z" fill="#FF0000"/>
<path d="M87.3291 74.9999L66.873 63.2183V86.7816L87.3291 74.9999Z" fill="white"/>
</svg>
