<svg width="979" height="1095" fill="none" xmlns="http://www.w3.org/2000/svg"><path d="M770.7 48.6h-687C37.7 48.6 0 86.3 0 132.3V890c0 46 37.7 83.7 83.7 83.7h452.5C531 748.5 607.9 311.6 770.7 48.6z" fill="#0F80CC"/><path d="M745.7 73H83.6c-32.7 0-59.3 26.6-59.3 59.3v702.4c149.9-57.5 375-107.2 530.6-104.9 31.3-163.6 123.2-484 190.8-656.8z" fill="url(#paint0_linear)"/><path d="M930.9 23.8c-47.1-42-104-25.1-160.2 24.8-8.3 7.4-16.7 15.6-25 24.4-96.2 102-185.5 291-213.2 435.4 10.8 21.9 19.2 49.9 24.8 71.2 1.4 5.5 2.7 10.6 3.7 15 2.4 10.4 3.8 17.1 3.8 17.1s-.9-3.3-4.4-13.5c-.7-2-1.4-4.1-2.3-6.6-.5-1.2-1-2.5-1.5-3.7-6.3-14.6-23.6-45.4-31.3-58.8-6.1 17.8-11.8 35.6-17.1 53.6 22.1 40.3 35.5 109.5 35.5 109.5s-1.2-4.5-6.7-20.1c-4.9-13.8-29.4-56.8-35.2-66.8-9.9 36.7-13.9 61.4-10.3 67.4 6.9 11.7 13.5 31.8 19.3 54.1 13 50.2 22.1 111.3 22.1 111.3s.3 4.1.8 10.3c-1.8 42.1-.7 85.8 2.5 125.3 4.3 52.3 12.5 97.2 22.8 121.2l7-3.8c-15.2-47.4-21.4-109.4-18.7-181 4.1-109.4 29.3-241.3 75.8-378.8 78.6-207.6 187.6-374.1 287.4-453.7-91 82.1-214.1 348-250.9 446.5-41.3 110.3-70.5 213.7-88.1 312.9 30.4-92.9 128.7-132.9 128.7-132.9s48.2-59.5 104.6-144.4c-33.8 7.7-89.2 20.9-107.7 28.7-27.4 11.5-34.8 15.4-34.8 15.4s88.7-54 164.8-78.5c104.6-164.9 218.6-399.1 103.8-501.5" fill="#003B57"/><defs><linearGradient id="paint0_linear" x1="385.302" y1="88.484" x2="385.302" y2="792.275" gradientUnits="userSpaceOnUse"><stop stop-color="#97D9F6"/><stop offset=".92" stop-color="#0F80CC"/><stop offset="1" stop-color="#0F80CC"/></linearGradient></defs></svg>