<svg width="150" height="150" fill="none" xmlns="http://www.w3.org/2000/svg"><path fill="#fff" d="M0 0h150v150H0z"/><path d="M72.77 127.768a4.853 4.853 0 012.849-.85 4.854 4.854 0 012.387.692 4.943 4.943 0 011.745 1.788 5.62 5.62 0 011.903-1.287 5.557 5.557 0 012.253-.414 5.57 5.57 0 013.665 1.489 6.289 6.289 0 012.275-3.402 6.162 6.162 0 013.865-1.253c.78.02 1.547.188 2.265.496v.142c.093-3.709 3.035-6.662 6.63-6.78a8.473 8.473 0 01-.77-4.655 8.515 8.515 0 014.529-6.544l.023.024a7.023 7.023 0 01-1.938-5.033 7.049 7.049 0 011.448-4.134 6.434 6.434 0 01-2.864-3.427 6.526 6.526 0 01.039-4.488 5.698 5.698 0 01-3.712-1.934 5.83 5.83 0 01-1.424-3.972c0-.3.024-.601.07-.898a4.575 4.575 0 01-.98.094 4.59 4.59 0 01-2.792-1.055 4.685 4.685 0 01-1.575-2.56c-.71.483-1.55.73-2.404.71a4.18 4.18 0 01-3.922-3.237 2.59 2.59 0 01-1.354.33 2.588 2.588 0 01-1.121-.283v-.047a8.618 8.618 0 01-2.265 3.78 2.628 2.628 0 011.5 2.44 2.694 2.694 0 01-.332 1.246 4.14 4.14 0 011.924 1.033 4.247 4.247 0 011.191 4.081 4.22 4.22 0 01-1.06 1.926 4.623 4.623 0 012.24 2.126 4.699 4.699 0 01-2.007 6.285 5.765 5.765 0 011.237 1.654c1.447 2.858.35 6.379-2.475 7.796a5.711 5.711 0 01-1.4.52v.023a6.51 6.51 0 01-.805 7.129 6.394 6.394 0 01-1.95 1.566 6.27 6.27 0 01-3.432.685 7.083 7.083 0 01-1.003 4.083 6.958 6.958 0 01-3.13 2.768c.313.394.55.842.7 1.323a.092.092 0 01-.023 0v.024z" fill="#B1361E"/><path d="M143.3 0H0v150h150V0h-6.7zm-6.187 91.857a6.293 6.293 0 01-3.782 2.74 5.757 5.757 0 011.319 3.112 5.779 5.779 0 01-.651 3.32 5.676 5.676 0 01-2.393 2.366 5.591 5.591 0 01-3.295.582 5.02 5.02 0 01-.246 2.387 4.944 4.944 0 01-1.519 2.164 4.863 4.863 0 01-5.005.718 4.066 4.066 0 01-.607 1.771c-.63 1.016-1.634 1.654-2.685 1.82.21.945.258 1.92.14 2.882a8.46 8.46 0 01-3.11 5.635 8.267 8.267 0 01-6.135 1.76h.233c.257.776.375 1.592.351 2.41a7.008 7.008 0 01-2.141 4.865 6.838 6.838 0 01-4.91 1.915 6.79 6.79 0 01-2.942-.756 6.327 6.327 0 01-1.33 3.22 6.218 6.218 0 01-2.82 2.005 6.139 6.139 0 01-3.445.173 6.19 6.19 0 01-3.004-1.712 5.719 5.719 0 01-1.957 2.745 5.607 5.607 0 01-3.147 1.143 5.59 5.59 0 01-3.236-.857 5.7 5.7 0 01-2.189-2.559 4.85 4.85 0 01-4.88.792 4.915 4.915 0 01-2.063-1.534 4.99 4.99 0 01-1.018-2.376 3.95 3.95 0 01-1.821.401c-2.031-.047-3.689-1.653-3.876-3.662l.024-.047a8.31 8.31 0 01-3.946 3.308 8.247 8.247 0 01-6.264-.029 8.384 8.384 0 01-4.475-4.436 6.812 6.812 0 01-7.154 1.883 6.906 6.906 0 01-4.006-3.443 6.986 6.986 0 01-.77-2.977 6.142 6.142 0 01-3.42.342 6.187 6.187 0 01-3.075-1.551 6.296 6.296 0 01-1.79-2.968 6.357 6.357 0 01.044-3.477 5.593 5.593 0 01-3.318-.421 5.672 5.672 0 01-2.502-2.245 5.77 5.77 0 01.357-6.454 4.9 4.9 0 01-2.044-1.567 5.015 5.015 0 01-.636-4.967 4.953 4.953 0 011.582-2.042 4.024 4.024 0 01-1.658-3.352c.012-.672.189-1.33.515-1.917l.116.024a8.247 8.247 0 01-3.105-1.512 8.455 8.455 0 01-3.166-5.499 8.511 8.511 0 011.532-6.172 6.819 6.819 0 01-2.195-.922 6.97 6.97 0 01-3.016-4.368 7.04 7.04 0 01.915-5.247 6.88 6.88 0 012.171-2.15 6.28 6.28 0 01-2.05-2.813 6.355 6.355 0 01-.25-3.486 6.308 6.308 0 011.63-3.082A6.192 6.192 0 0118 56.017a5.775 5.775 0 01-.64-6.423 5.682 5.682 0 012.393-2.356 5.592 5.592 0 013.29-.577l.023.26a5.017 5.017 0 01.188-2.656 4.96 4.96 0 011.517-2.175 4.85 4.85 0 015.018-.722 4.051 4.051 0 013.315-3.591 8.51 8.51 0 01-.162-2.858 8.461 8.461 0 013.026-5.569 8.267 8.267 0 016.009-1.85 7.021 7.021 0 01-.374-2.386c.117-3.85 3.269-6.899 7.05-6.78a6.777 6.777 0 012.942.732 6.323 6.323 0 011.338-3.211 6.21 6.21 0 012.823-1.997 6.14 6.14 0 013.44-.167 6.191 6.191 0 012.999 1.713 5.715 5.715 0 011.95-2.75 5.598 5.598 0 016.383-.3 5.698 5.698 0 012.196 2.554 4.85 4.85 0 014.88-.791c.81.317 1.521.846 2.063 1.533a4.992 4.992 0 011.018 2.376 3.95 3.95 0 011.82-.378c2.055.048 3.69 1.654 3.9 3.639l-.047.07a8.29 8.29 0 013.945-3.33c4.203-1.725 8.966.283 10.74 4.488a6.868 6.868 0 011.914-1.488 6.814 6.814 0 015.253-.43 6.911 6.911 0 014.016 3.454c.466.923.721 1.94.747 2.977a6.142 6.142 0 013.436-.36 6.181 6.181 0 013.094 1.556 6.294 6.294 0 011.795 2.987 6.35 6.35 0 01-.061 3.495 5.59 5.59 0 013.304.427 5.673 5.673 0 012.492 2.237 5.779 5.779 0 01-.333 6.432c.807.33 1.512.87 2.044 1.567s.871 1.524.983 2.397a5.023 5.023 0 01-.347 2.57 4.952 4.952 0 01-1.582 2.042c.5.373.908.858 1.19 1.418a4.107 4.107 0 01-.07 3.874 8.245 8.245 0 013.012 1.489 8.453 8.453 0 013.142 5.493 8.51 8.51 0 01-1.531 6.154c.78.183 1.523.503 2.194.945a6.967 6.967 0 013.005 4.358 7.04 7.04 0 01-.903 5.235 6.882 6.882 0 01-2.148 2.173 6.296 6.296 0 012.307 3.891 6.347 6.347 0 01-.883 4.449z" fill="#B1361E"/><path d="M71.58 21.216a5.622 5.622 0 01-1.903 1.287 5.567 5.567 0 01-2.253.414 5.567 5.567 0 01-3.642-1.465 6.287 6.287 0 01-2.29 3.395 6.16 6.16 0 01-3.873 1.236 6.124 6.124 0 01-2.265-.473 6.984 6.984 0 01-2.037 4.62 6.825 6.825 0 01-4.593 1.996 8.477 8.477 0 01.77 4.654 8.494 8.494 0 01-1.45 3.85 8.364 8.364 0 01-3.079 2.694c1.237 1.3 1.961 3.072 1.914 5.032a7.047 7.047 0 01-1.447 4.111c2.008 1.134 3.315 3.308 3.268 5.789a6.491 6.491 0 01-.443 2.126 5.698 5.698 0 013.72 1.943 5.83 5.83 0 011.416 3.987 5.906 5.906 0 01-.07.874c.323-.059.652-.082.98-.07 2.148.047 3.923 1.582 4.39 3.614a4.098 4.098 0 012.38-.709c1.939.048 3.503 1.418 3.946 3.237a2.592 2.592 0 012.382-.094 8.594 8.594 0 011.89-3.993 2.639 2.639 0 01-.746-.898 2.695 2.695 0 01.023-2.48 4.14 4.14 0 01-1.93-1.04 4.214 4.214 0 01-1.142-1.887 4.253 4.253 0 01-.037-2.213 4.219 4.219 0 011.078-1.925 4.622 4.622 0 01-2.74-3.99 4.74 4.74 0 01.288-1.91 4.685 4.685 0 011.026-1.63c.45-.464.992-.829 1.59-1.07-.127.05-.252.105-.374.166a5.781 5.781 0 01-1.26-1.654 5.844 5.844 0 01-.085-5.135 5.778 5.778 0 011.624-2.062 5.69 5.69 0 012.359-1.12V40.4a6.52 6.52 0 01-.403-4.906 6.43 6.43 0 013.135-3.764 6.263 6.263 0 013.455-.71 7.085 7.085 0 01.89-3.892 6.971 6.971 0 012.845-2.77c.123-.059.248-.114.374-.165a4.081 4.081 0 01-.677-1.323 4.86 4.86 0 01-5.24.123 4.934 4.934 0 01-1.74-1.8l-.024.023zm50.124 51.268a8.428 8.428 0 01-2.513-3.253 8.53 8.53 0 01-.685-4.071 6.698 6.698 0 01-5.23-.921 6.975 6.975 0 01-2.755-3.379 6.31 6.31 0 01-8.171-1.654c-1.774 2.41-5.113 3.072-7.657 1.418a5.795 5.795 0 01-.7-.52c-.109.313-.25.614-.421.898a4.632 4.632 0 01-2.34 1.875 4.571 4.571 0 01-2.983.038 4.22 4.22 0 01-.654 2.434 4.113 4.113 0 01-4.762 1.748 2.67 2.67 0 01-.397 1.347 2.69 2.69 0 01-.467.543 8.604 8.604 0 011.96 3.568 2.59 2.59 0 011.168-.26 2.617 2.617 0 012.148 1.229 4.153 4.153 0 011.817-1.22 4.108 4.108 0 012.177-.121 4.14 4.14 0 011.938 1.011c.546.506.948 1.15 1.165 1.865a4.563 4.563 0 012.919-.968c2.568.047 4.552 2.197 4.505 4.772a4.675 4.675 0 01-.046.472l.046-.448a5.663 5.663 0 014.223.159 5.721 5.721 0 011.836 1.305 5.79 5.79 0 011.199 1.92 5.873 5.873 0 01.143 3.727c3.526.094 6.304 3.048 6.21 6.615a6.454 6.454 0 01-1.05 3.379 6.964 6.964 0 012.988 2.66 7.082 7.082 0 011.051 3.884 7.104 7.104 0 01-.467 2.292l.023-.048.63.118a5.006 5.006 0 01.771-2.905 4.934 4.934 0 011.827-1.711 4.864 4.864 0 012.422-.581 5.745 5.745 0 01.7-4.489 5.612 5.612 0 013.152-2.363 6.31 6.31 0 01-1.714-3.739 6.338 6.338 0 01.944-4.01 6.211 6.211 0 011.611-1.701 6.944 6.944 0 01-2.881-4.159 7.02 7.02 0 01.686-5.031 8.229 8.229 0 01-4.342-1.725h-.024z" fill="#B1361E"/><path d="M122.031 53.489a4.06 4.06 0 01.514-.686 4.934 4.934 0 01-2.078-2.126 5.007 5.007 0 01.187-4.867 5.646 5.646 0 01-3.456-2.882 5.74 5.74 0 01-.467-3.946 6.14 6.14 0 01-4.043-.395 6.241 6.241 0 01-2.937-2.842 6.35 6.35 0 01-.654-2.267 6.79 6.79 0 01-4.984.406 6.878 6.878 0 01-3.934-3.123 8.304 8.304 0 01-3.665 2.905 8.245 8.245 0 01-7.845-.897v-.071a7.045 7.045 0 01-1.31 2.444 6.95 6.95 0 01-2.145 1.738 6.84 6.84 0 01-4.272.708 6.506 6.506 0 01-.96 3.295 6.403 6.403 0 01-4.55 2.99c1.144 2.764 0 6-2.685 7.395-.255.138-.52.256-.794.354.208.256.388.533.537.827a4.707 4.707 0 01-1.05 5.623 4.158 4.158 0 011.75 1.795 4.176 4.176 0 01-.933 5.033c.407.251.738.61.957 1.04.117.212.187.425.234.637a8.376 8.376 0 014.202-.094c.062-.319.18-.623.35-.898a2.65 2.65 0 01.913-.879c.37-.214.786-.334 1.212-.35a4.253 4.253 0 01-.098-2.209 4.221 4.221 0 011.024-1.953 4.148 4.148 0 011.861-1.159 4.109 4.109 0 012.185-.042 4.698 4.698 0 01.7-3.024 4.546 4.546 0 016.35-1.417c.147-.69.416-1.346.795-1.938a5.76 5.76 0 011.548-1.645 5.652 5.652 0 017.51.842 6.422 6.422 0 011.718-1.821 6.303 6.303 0 017.084-.163 6.381 6.381 0 012.334 2.67c2.218-1.513 5.206-1.655 7.588-.095a6.94 6.94 0 011.307 1.087zm-43.89 31.185a2.672 2.672 0 01-.304-1.512 8.4 8.4 0 01-2.102.26c-.7 0-1.377-.07-2.007-.236a2.651 2.651 0 01-1.297 2.75 2.614 2.614 0 01-1.225.345c.22.71.248 1.468.084 2.193a4.221 4.221 0 01-1.02 1.938 4.148 4.148 0 01-1.845 1.153 4.109 4.109 0 01-2.168.056 4.698 4.698 0 01-.7 3.024 4.623 4.623 0 01-2.898 2.04 4.577 4.577 0 01-3.476-.623A5.825 5.825 0 0158.389 98a5.758 5.758 0 01-1.545 1.638 5.698 5.698 0 01-2.048.912 5.68 5.68 0 01-4.32-.778 5.759 5.759 0 01-1.145-.968v.023a6.376 6.376 0 01-4 2.825 6.309 6.309 0 01-4.802-.864 6.377 6.377 0 01-2.334-2.646c-2.218 1.512-5.183 1.654-7.588.095A6.98 6.98 0 0129.3 97.15c-.149.238-.32.46-.514.661a4.933 4.933 0 012.101 2.127 5.013 5.013 0 01-.21 4.867 5.581 5.581 0 013.455 2.882 5.729 5.729 0 01.467 3.945 6.145 6.145 0 014.063.398 6.237 6.237 0 012.941 2.863c.347.701.561 1.463.63 2.244a6.793 6.793 0 014.998-.417 6.88 6.88 0 013.944 3.134 8.31 8.31 0 013.666-2.906c2.684-1.087 5.603-.661 7.844.898a7.018 7.018 0 011.31-2.403 6.935 6.935 0 012.122-1.708 6.841 6.841 0 014.272-.685 6.453 6.453 0 013.455-5.647 6.325 6.325 0 012.078-.661c-1.167-2.764 0-6.001 2.662-7.395a5.7 5.7 0 01.817-.33 4.652 4.652 0 01-.56-.851c-.981-1.938-.467-4.23 1.05-5.6a4.159 4.159 0 01-1.75-1.795 4.27 4.27 0 01.933-5.056 2.635 2.635 0 01-.934-1.04z" fill="#B1361E"/><path d="M67.798 77.847a2.593 2.593 0 01-1.564.472 2.615 2.615 0 01-1.221-.334 2.651 2.651 0 01-.927-.87 4.154 4.154 0 01-1.814 1.204 4.11 4.11 0 01-2.166.116 4.139 4.139 0 01-1.929-1.005 4.212 4.212 0 01-1.165-1.851 4.562 4.562 0 01-2.942.945c-2.545-.047-4.552-2.197-4.482-4.773a5.656 5.656 0 01-2.055.307 5.666 5.666 0 01-2.521-.66 5.74 5.74 0 01-1.97-1.722 5.856 5.856 0 01-.855-5.06h-.023c-3.503-.07-6.304-3.024-6.21-6.591a6.455 6.455 0 011.05-3.379 6.962 6.962 0 01-2.961-2.669 7.082 7.082 0 01-1.031-3.875c.015-.774.157-1.54.42-2.268a4.02 4.02 0 01-.63-.118 5.006 5.006 0 01-.77 2.906 4.925 4.925 0 01-1.828 1.71 4.856 4.856 0 01-2.422.581 5.792 5.792 0 01-.7 4.49 5.611 5.611 0 01-3.129 2.386c1.938 2.055 2.335 5.244.748 7.749a6.23 6.23 0 01-1.588 1.7 6.946 6.946 0 012.87 4.15 7.02 7.02 0 01-.675 5.018 8.233 8.233 0 014.319 1.748 8.42 8.42 0 012.507 3.243 8.524 8.524 0 01.691 4.057 6.765 6.765 0 015.253.945 6.975 6.975 0 012.731 3.355 6.314 6.314 0 016.56.19c.617.39 1.162.886 1.612 1.464 1.774-2.41 5.136-3.071 7.657-1.418.247.163.481.345.7.544.116-.315.265-.616.444-.898a4.597 4.597 0 015.323-1.937 4.22 4.22 0 01.63-2.41 4.122 4.122 0 014.763-1.725c.01-.5.16-.989.432-1.407.273-.418.657-.75 1.109-.955a8.604 8.604 0 01-2.241-3.308v-.047z" fill="#B1361E"/></svg>