<svg width="400" height="227" fill="none" xmlns="http://www.w3.org/2000/svg"><g clip-path="url(#clip0)"><path fill="#7B0505" d="M0 0h400v227H0z"/><path d="M145 227H0V0h110l35 227zm110 0h145V0H290l-35 227zm9.5-227H135l65 105.5L264.5 0z" fill="#440404"/><path d="M258 0H141l58.726 86L258 0z" fill="#7B0505"/><path d="M154.003 226.917l-.089 1.083h92.676l-.094-1.086-14.942-173.825c.156-.088.334-.196.53-.326.695-.46 1.611-1.193 2.554-2.303 1.893-2.232 3.842-5.931 4.358-11.873.261-3-.099-6.942-.758-11.11-.662-4.186-1.638-8.668-2.642-12.777A271.23 271.23 0 00231.82.893c-.115-.383-.207-.68-.269-.882a26.693 26.693 0 01-.072-.231l-.019-.06-.004-.015-.002-.004h0L230.5 0l.954-.3-.22-.7h-62.512l-.191.754.969.246-.969-.246-.001.001-.001.004-.004.017-.016.064-.063.25-.237.956a396.458 396.458 0 00-3.313 14.627c-.878 4.26-1.726 8.815-2.293 12.876-.562 4.031-.862 7.674-.597 10.061.521 4.687 2.215 8.212 3.787 10.57a20.2 20.2 0 002.105 2.663c.22.233.411.422.565.568l-14.46 174.506z" fill="#220404" stroke="#440404" stroke-width="2"/><path d="M112.35 132.59c3.06 0 5.88-.66 8.46-1.98 2.64-1.32 5.01-3.27 7.11-5.85l10.17 9.99c-2.94 3.66-6.81 6.6-11.61 8.82-4.74 2.22-9.63 3.33-14.67 3.33-4.74 0-9.21-.84-13.41-2.52-4.14-1.68-7.71-3.96-10.71-6.84-3-2.88-5.37-6.3-7.11-10.26-1.74-3.96-2.61-8.22-2.61-12.78 0-4.56.87-8.82 2.61-12.78 1.74-4.02 4.11-7.47 7.11-10.35 3.06-2.88 6.66-5.16 10.8-6.84 4.14-1.68 8.58-2.52 13.32-2.52 2.58 0 5.16.3 7.74.9 2.58.6 5.04 1.44 7.38 2.52 2.34 1.02 4.5 2.31 6.48 3.87 1.98 1.5 3.69 3.18 5.13 5.04L128.1 104.6c-2.22-2.76-4.71-4.83-7.47-6.21-2.7-1.44-5.64-2.16-8.82-2.16-2.52 0-4.89.48-7.11 1.44-2.16.9-4.05 2.16-5.67 3.78-1.56 1.62-2.82 3.57-3.78 5.85-.9 2.22-1.35 4.62-1.35 7.2s.45 4.98 1.35 7.2c.96 2.16 2.25 4.05 3.87 5.67 1.68 1.62 3.63 2.91 5.85 3.87 2.28.9 4.74 1.35 7.38 1.35zm30.203 3.78l8.64-11.25c3.78 3.06 7.32 5.28 10.62 6.66 3.3 1.38 6.75 2.07 10.35 2.07 3.54 0 6.3-.54 8.28-1.62 2.04-1.08 3.06-2.58 3.06-4.5 0-1.74-.69-3.09-2.07-4.05-1.32-.96-3.54-1.71-6.66-2.25l-13.86-2.43c-5.1-.9-9.03-2.85-11.79-5.85-2.76-3-4.14-6.81-4.14-11.43 0-6.06 2.28-10.83 6.84-14.31 4.62-3.54 10.95-5.31 18.99-5.31 4.68 0 9.39.81 14.13 2.43 4.8 1.62 8.91 3.81 12.33 6.57l-8.19 11.43c-3.3-2.58-6.54-4.47-9.72-5.67a26.61 26.61 0 00-9.63-1.8c-3.12 0-5.61.51-7.47 1.53-1.8.96-2.7 2.28-2.7 3.96 0 1.56.57 2.79 1.71 3.69 1.2.84 3.12 1.47 5.76 1.89l13.05 2.16c6.06.96 10.65 2.97 13.77 6.03 3.18 3.06 4.77 7.02 4.77 11.88 0 6.36-2.49 11.4-7.47 15.12-4.92 3.72-11.64 5.58-20.16 5.58-5.04 0-10.08-.93-15.12-2.79-4.98-1.86-9.42-4.44-13.32-7.74zm65.75-19.53l1.53-33.84h42.12v12.15h-30.33l-.54 12.33c1.8-.6 3.6-1.02 5.4-1.26 1.86-.3 3.81-.45 5.85-.45 6.96 0 12.57 1.8 16.83 5.4 4.26 3.54 6.39 8.22 6.39 14.04 0 3.24-.66 6.21-1.98 8.91-1.26 2.64-3.06 4.92-5.4 6.84-2.34 1.92-5.16 3.42-8.46 4.5-3.24 1.02-6.84 1.53-10.8 1.53-4.56 0-8.91-.72-13.05-2.16-4.08-1.44-7.71-3.54-10.89-6.3l8.73-9.9c2.7 2.22 5.25 3.81 7.65 4.77 2.4.9 5.07 1.35 8.01 1.35 3.42 0 6.15-.81 8.19-2.43 2.04-1.62 3.06-3.75 3.06-6.39 0-2.58-1.14-4.65-3.42-6.21-2.22-1.62-5.07-2.43-8.55-2.43-1.74 0-3.54.21-5.4.63-1.86.42-3.6 1.02-5.22 1.8l-9.72-2.88zm83.447 30.06c-4.26 0-8.16-.78-11.7-2.34-3.54-1.56-6.54-3.75-9-6.57-2.46-2.82-4.38-6.24-5.76-10.26s-2.07-8.46-2.07-13.32c0-4.86.69-9.27 2.07-13.23 1.38-4.02 3.3-7.44 5.76-10.26a26.43 26.43 0 019-6.57c3.54-1.56 7.44-2.34 11.7-2.34 4.26 0 8.13.78 11.61 2.34 3.54 1.56 6.54 3.75 9 6.57 2.52 2.82 4.47 6.24 5.85 10.26 1.38 3.96 2.07 8.37 2.07 13.23 0 4.86-.69 9.3-2.07 13.32s-3.3 7.44-5.76 10.26c-2.46 2.82-5.46 5.01-9 6.57-3.54 1.56-7.44 2.34-11.7 2.34zm0-12.6c4.44 0 7.92-1.77 10.44-5.31 2.58-3.54 3.87-8.4 3.87-14.58 0-6.06-1.29-10.86-3.87-14.4-2.58-3.6-6.06-5.4-10.44-5.4s-7.86 1.8-10.44 5.4c-2.58 3.54-3.87 8.34-3.87 14.4 0 6.18 1.26 11.04 3.78 14.58 2.58 3.54 6.09 5.31 10.53 5.31z" fill="#F7F6F6"/></g><defs><clipPath id="clip0"><path fill="#fff" d="M0 0h400v227H0z"/></clipPath></defs></svg>