<svg width="150" height="151" fill="none" xmlns="http://www.w3.org/2000/svg"><path fill="#fff" d="M0 0h150v150H0z"/><path d="M0 0v150.014h150V0H0zm140.086 75.642c-.649 1.242-1.351 2.417-1.973 3.66a4.643 4.643 0 01-4.781 2.702 3.243 3.243 0 00-2.094.675 141.587 141.587 0 01-5.646 3.552 9.897 9.897 0 01-8.577.46 40.131 40.131 0 00-14.359-2.702 15.803 15.803 0 00-12.778 5.822 20.048 20.048 0 00-2.877 5.795c-1.675 4.146-3.106 28.878-3.106 35.186 0 0-23.8-4.619-46.128-27.474l5.822-15.29H25.353l13.184-13.98H15.844L29.041 60.08H7.497l23.989-25.434A55.245 55.245 0 0158.19 20.018c9.59-1.648 12.062-.716 17.978 1.04l3.283.986 1.148.338 4.187 1.283a16.97 16.97 0 008.388.122 15.358 15.358 0 0111.144 1.35 11.127 11.127 0 015.538 8.402 9.85 9.85 0 004.876 7.416 80.33 80.33 0 0012.589 5.551c3.066 1.162 6.132 2.485 9.172 3.674a9.207 9.207 0 013.863 2.783 6.502 6.502 0 011.486 3.687c.189 2.702.499 5.403.634 8.105a20.59 20.59 0 01-2.39 10.846v.04z" fill="#000"/></svg>