<svg width="150" height="150" fill="none" xmlns="http://www.w3.org/2000/svg"><path fill="#fff" d="M0 0h150v150H0z"/><path d="M112.381 56.097a9.846 9.846 0 00-6.926-6.926c-6.15-1.683-30.75-1.683-30.75-1.683s-24.598 0-30.748 1.618c-3.301.906-6.02 3.625-6.926 6.991C35.412 62.247 35.412 75 35.412 75s0 12.817 1.619 18.902a9.847 9.847 0 006.926 6.927c6.215 1.683 30.749 1.683 30.749 1.683s24.599 0 30.749-1.618a9.846 9.846 0 006.926-6.927C114 87.817 114 75.065 114 75.065s.064-12.818-1.619-18.968z" fill="red"/><path d="M87.33 75L66.872 63.218v23.564L87.329 75z" fill="#fff"/></svg>